# xmcd CD database file
#
# Track frame offsets:
#	150
#	15772
#	36587
#	53582
#	75775
#	94587
#	110115
#	128305
#	149007
#	162425
#	182492
#	204632
#
# Disc length: 2802 seconds
#
# Revision: 2
# Processed by: cddbd v1.5.1PL0 Copyright (c) Steve Scherf et al.
# Submitted via: CDex 1.51
#
DISCID=910af00c
DTITLE=Walkinlight - Steg två
DYEAR=1995
DGENRE=Acid Jazz
TTITLE0=Som solen efter regn
TTITLE1=Du som haver
TTITLE2=Vem kan förstå
TTITLE3=Nånting hände
TTITLE4=I mitt innersta rum
TTITLE5=Var som jag?!
TTITLE6=Vackra ord
TTITLE7=Dansa med mig
TTITLE8=Jag springer bort
TTITLE9=Nya färger
TTITLE10=Nånting hände (Remix)
TTITLE11=Avslut
EXTD=YEAR: 1995
EXTT0=
EXTT1=
EXTT2=
EXTT3=
EXTT4=
EXTT5=
EXTT6=
EXTT7=
EXTT8=
EXTT9=
EXTT10=
EXTT11=
PLAYORDER=
